<!-- Copyright (c) 2024 Michael D Henderson. All rights reserved. -->

<svg class="railroad-diagram" width="340" height="71" viewBox="0 0 340 71" xmlns="http://www.w3.org/2000/svg"
>
    <g transform="translate(.5 .5)">
        <g>
            <path d="M20 21v20m10 -20v20m-10 -10h20"></path>
        </g>
        <path d="M40 31h10"></path>
        <g>
            <path d="M50 31h0"></path>
            <path d="M226 31h0"></path>
            <path d="M50 31h10"></path>
            <g class="non-terminal ">
                <path d="M60 31h0"></path>
                <path d="M216 31h0"></path>
                <rect x="60" y="20" width="156" height="22"></rect>
                <text x="138" y="35">unit&#95;section&#95;list</text>
            </g>
            <path d="M216 31h10"></path>
            <path d="M60 31a10 10 0 0 0 -10 10v0a10 10 0 0 0 10 10"></path>
            <g>
                <path d="M60 51h156"></path>
            </g>
            <path d="M216 51a10 10 0 0 0 10 -10v0a10 10 0 0 0 -10 -10"></path>
        </g>
        <path d="M226 31h10"></path>
        <path d="M236 31h10"></path>
        <g class="terminal ">
            <path d="M246 31h0"></path>
            <path d="M290 31h0"></path>
            <rect x="246" y="20" width="44" height="22" rx="10" ry="10"></rect>
            <text x="268" y="35">EOF</text>
        </g>
        <path d="M290 31h10"></path>
        <path d="M 300 31 h 20 m -10 -10 v 20 m 10 -20 v 20"></path>
    </g>
    <style>
        svg {
        background-color: hsl(30,20%,95%);
        }
        path {
        stroke-width: 3;
        stroke: black;
        fill: rgba(0,0,0,0);
        }
        text {
        font: bold 14px monospace;
        text-anchor: middle;
        white-space: pre;
        }
        text.diagram-text {
        font-size: 12px;
        }
        text.diagram-arrow {
        font-size: 16px;
        }
        text.label {
        text-anchor: start;
        }
        text.comment {
        font: italic 12px monospace;
        }
        g.non-terminal text {
        /&#42;font-style: italic;&#42;/
        }
        rect {
        stroke-width: 3;
        stroke: black;
        fill: hsl(120,100%,90%);
        }
        rect.group-box {
        stroke: gray;
        stroke-dasharray: 10 5;
        fill: none;
        }
        path.diagram-text {
        stroke-width: 3;
        stroke: black;
        fill: white;
        cursor: help;
        }
        g.diagram-text:hover path.diagram-text {
        fill: #eee;
        }
    </style>
</svg>
