<!-- Copyright (c) 2024 Michael D Henderson. All rights reserved. -->

<svg class="railroad-diagram" width="264" height="124" viewBox="0 0 264 124" xmlns="http://www.w3.org/2000/svg" xmlns:xlink="http://www.w3.org/1999/xlink">
    <g transform="translate(.5 .5)">
        <g>
            <path d="M20 45v20m10 -20v20m-10 -10h20"></path>
        </g>
        <path d="M40 55h10"></path>
        <g>
            <path d="M50 55h0"></path>
            <path d="M214 55h0"></path>
            <rect x="50" y="36" width="164" height="68" rx="10" ry="10" class="group-box"></rect>
            <g>
                <path d="M50 55h0"></path>
                <path d="M214 55h0"></path>
                <path d="M50 55h20"></path>
                <g>
                    <path d="M70 55h0"></path>
                    <path d="M194 55h0"></path>
                    <g class="terminal ">
                        <path d="M70 55h0"></path>
                        <path d="M98 55h0"></path>
                        <rect x="70" y="44" width="28" height="22" rx="10" ry="10"></rect>
                        <text x="84" y="59">(</text>
                    </g>
                    <path d="M98 55h10"></path>
                    <path d="M108 55h10"></path>
                    <g class="non-terminal ">
                        <path d="M118 55h0"></path>
                        <path d="M146 55h0"></path>
                        <rect x="118" y="44" width="28" height="22"></rect>
                        <text x="132" y="59">B</text>
                    </g>
                    <path d="M146 55h10"></path>
                    <path d="M156 55h10"></path>
                    <g class="terminal ">
                        <path d="M166 55h0"></path>
                        <path d="M194 55h0"></path>
                        <rect x="166" y="44" width="28" height="22" rx="10" ry="10"></rect>
                        <text x="180" y="59">)</text>
                    </g>
                </g>
                <path d="M194 55h20"></path>
                <path d="M50 55a10 10 0 0 1 10 10v10a10 10 0 0 0 10 10"></path>
                <g class="terminal ">
                    <path d="M70 85h48"></path>
                    <path d="M146 85h48"></path>
                    <rect x="118" y="74" width="28" height="22" rx="10" ry="10"></rect>
                    <text x="132" y="89">x</text>
                </g>
                <path d="M194 85a10 10 0 0 0 10 -10v-10a10 10 0 0 1 10 -10"></path>
            </g>
            <g class="comment ">
                <path d="M50 28h0"></path>
                <path d="M67 28h0"></path>
                <text x="58.5" y="33" class="comment">A</text>
            </g>
        </g>
        <path d="M214 55h10"></path>
        <path d="M 224 55 h 20 m -10 -10 v 20 m 10 -20 v 20"></path>
    </g>
    <style>
        svg {
        background-color: hsl(30,20%,95%);
        }
        path {
        stroke-width: 3;
        stroke: black;
        fill: rgba(0,0,0,0);
        }
        text {
        font: bold 14px monospace;
        text-anchor: middle;
        white-space: pre;
        }
        text.diagram-text {
        font-size: 12px;
        }
        text.diagram-arrow {
        font-size: 16px;
        }
        text.label {
        text-anchor: start;
        }
        text.comment {
        font: italic 12px monospace;
        }
        g.non-terminal text {
        /&#42;font-style: italic;&#42;/
        }
        rect {
        stroke-width: 3;
        stroke: black;
        fill: hsl(120,100%,90%);
        }
        rect.group-box {
        stroke: gray;
        stroke-dasharray: 10 5;
        fill: none;
        }
        path.diagram-text {
        stroke-width: 3;
        stroke: black;
        fill: white;
        cursor: help;
        }
        g.diagram-text:hover path.diagram-text {
        fill: #eee;
        }</style>
</svg>
