<svg class="railroad-diagram" width="224" height="62" viewBox="0 0 224 62" xmlns="http://www.w3.org/2000/svg" xmlns:xlink="http://www.w3.org/1999/xlink">
    <g transform="translate(.5 .5)">
        <g>
            <path d="M20 21v20m10 -20v20m-10 -10h20"></path>
        </g>
        <path d="M40 31h10"></path>
        <g class="non-terminal ">
            <path d="M50 31h0"></path>
            <path d="M78 31h0"></path>
            <rect x="50" y="20" width="28" height="22"></rect>
            <text x="64" y="35">α</text>
        </g>
        <path d="M78 31h10"></path>
        <path d="M88 31h10"></path>
        <g class="non-terminal ">
            <path d="M98 31h0"></path>
            <path d="M126 31h0"></path>
            <rect x="98" y="20" width="28" height="22"></rect>
            <text x="112" y="35">β</text>
        </g>
        <path d="M126 31h10"></path>
        <path d="M136 31h10"></path>
        <g class="non-terminal ">
            <path d="M146 31h0"></path>
            <path d="M174 31h0"></path>
            <rect x="146" y="20" width="28" height="22"></rect>
            <text x="160" y="35">γ</text>
        </g>
        <path d="M174 31h10"></path>
        <path d="M 184 31 h 20 m -10 -10 v 20 m 10 -20 v 20"></path>
    </g>
    <style>
        svg {
        background-color: hsl(30,20%,95%);
        }
        path {
        stroke-width: 3;
        stroke: black;
        fill: rgba(0,0,0,0);
        }
        text {
        font: bold 14px monospace;
        text-anchor: middle;
        white-space: pre;
        }
        text.diagram-text {
        font-size: 12px;
        }
        text.diagram-arrow {
        font-size: 16px;
        }
        text.label {
        text-anchor: start;
        }
        text.comment {
        font: italic 12px monospace;
        }
        g.non-terminal text {
        /&#42;font-style: italic;&#42;/
        }
        rect {
        stroke-width: 3;
        stroke: black;
        fill: hsl(120,100%,90%);
        }
        rect.group-box {
        stroke: gray;
        stroke-dasharray: 10 5;
        fill: none;
        }
        path.diagram-text {
        stroke-width: 3;
        stroke: black;
        fill: white;
        cursor: help;
        }
        g.diagram-text:hover path.diagram-text {
        fill: #eee;
        }</style>
</svg>
